# xmcd CD database file
#
# Track frame offsets:
#	150
#	14005
#	29220
#	39392
#	58099
#	70525
#	87373
#	103310
#	114857
#	128384
#	142827
#	159645
#	173268
#	192432
#
# Disc length: 2732 seconds
#
# Revision: 1
# Processed by: cddbd v1.5.2PL0 Copyright (c) Steve Scherf et al.
# Submitted via: CDex 1.70beta2
#
DISCID=b50aaa0e
DTITLE=Franc Marocco - Evergreens (Accordion solo)
DYEAR=2009
DGENRE=Jazz
TTITLE0=Ain't Misbehavin'
TTITLE1=Prelude to a Kiss
TTITLE2=They Can't Take that Away from Me
TTITLE3=Everything Happens to Me
TTITLE4=Softly as in a Morning Sunrise
TTITLE5=Early Autumn
TTITLE6=Bluesette
TTITLE7=A Night in Morocco
TTITLE8=You've Changed
TTITLE9=One Note Samba
TTITLE10=Love Dance
TTITLE11=I Should Care
TTITLE12=Moonlight in Vermont
TTITLE13=Isn't She Lovely
EXTD=YEAR: 2009
EXTT0=
EXTT1=
EXTT2=
EXTT3=
EXTT4=
EXTT5=
EXTT6=
EXTT7=
EXTT8=
EXTT9=
EXTT10=
EXTT11=
EXTT12=
EXTT13=
PLAYORDER=
